<svg xmlns="http://www.w3.org/2000/svg" viewBox="0 0 108 108" fill="none">
  <path
    fill="#6C63FF"
    fill-opacity="0.88"
    d="M19.44 45.36C29.16 17.28 57.24 10.8 71.28 18.36C82.08 18.36 91.8 21.6 93.96 30.24C100.44 36.72 88.56 50.76 66.96 54C47.52 56.16 25.92 54 19.44 45.36Z" />
  <path
    fill="#6C63FF"
    d="M17.28 74.52C19.44 62.64 30.24 57.24 45.36 57.24C61.56 57.24 82.08 57.24 92.88 63.72C101.52 71.28 94.68 93.96 75.6 95.04C57.24 98.28 29.16 94.68 20.52 84.24C17.28 79.92 16.2 77.76 17.28 74.52Z" />
  <path
    d="M13 52C28 44 48 44 67 48C80 50 92 54 97 61"
    stroke="#0A0A0F"
    stroke-linecap="round"
    stroke-linejoin="round"
    stroke-width="12" />
</svg>
